<svg width="1920" height="1080" viewBox="0 0 1920 1080" xmlns="http://www.w3.org/2000/svg"><rect width="1920" height="1080" fill="#f0dbdb"/><path d="M 0,1080 C 0,1080 0,360 0,360 C 234.80000000000007,352.93333333333334 469.60000000000014,345.8666666666667 708,376 C 946.3999999999999,406.1333333333333 1188.3999999999999,473.46666666666675 1391,477 C 1593.6000000000001,480.53333333333325 1756.8000000000002,420.26666666666665 1920,360 C 1920,360 1920,1080 1920,1080 Z" fill="#fffafa" opacity="0.19999999999999998"/><path d="M 0,1080 C 0,1080 0,720 0,720 C 190.40000000000003,749.5999999999999 380.80000000000007,779.1999999999999 583,784 C 785.1999999999999,788.8000000000001 999.2,768.8000000000001 1224,754 C 1448.8,739.1999999999999 1684.4,729.5999999999999 1920,720 C 1920,720 1920,1080 1920,1080 Z" fill="#fffafa" opacity="0.39999999999999997"/></svg>